#!OML:ASF Y:\EmotionMaleHayes\Project 1\Capture day 1\Session 1\Male1.ASF
:FULLY-SPECIFIED
:DEGREES
148
root -13.8422 14.8563 4.76954 -190.818 47.8392 152.636
lowerback 33.0982 -7.16949 -21.9074
upperback 8.18812 -14.6561 -12.0884
thorax -5.12082 -5.55143 2.29387
lowerneck -22.0763 -0.293961 2.44327
upperneck 19.5142 -2.18034 4.46263
head 9.89253 -0.22664 0.858844
rclavicle 8.90555e-014 1.55847e-013
rhumerus -7.99538 -54.3105 11.1545
rradius 64.0552
rwrist -37.024
rhand -34.265 -35.3972
rfingers 7.12502
rthumb -7.4354 -65.2465
lclavicle 8.90555e-014 1.55847e-013
lhumerus 5.02167 -46.2969 85.5329
lradius 43.9532
lwrist -8.13248
lhand -16.6107 -19.2911
lfingers 7.12502
lthumb 9.61095 10.4697
rfemur -35.2086 -10.8251 24.9463
rtibia 69.158
rfoot -392.402 -13.3622
rtoes 20.5337
lfemur 10.5578 -2.21237 1.77313
ltibia 57.6894
lfoot -1.2633 0.379666
ltoes -24.9509
149
root -13.7338 14.837 4.75115 -189.136 49.3396 156.182
lowerback 33.8636 -7.40601 -18.6427
upperback 8.619 -14.1539 -12.1111
thorax -5.9674 -5.34242 1.04159
lowerneck -21.7976 -0.281252 2.6089
upperneck 18.9304 -2.23376 4.71421
head 9.63994 -0.228253 0.907314
rclavicle -1.27222e-014 -6.67916e-014
rhumerus -2.14868 -55.1746 9.44129
rradius 64.3114
rwrist -35.3442
rhand -33.2986 -34.4326
rfingers 7.12502
rthumb -6.50251 -64.3128
lclavicle -1.27222e-014 -6.67916e-014
lhumerus 3.18764 -48.389 86.6233
lradius 47.0145
lwrist -6.97071
lhand -15.4334 -18.8531
lfingers 7.12502
lthumb 10.7467 10.852
rfemur -33.2315 -9.90164 28.3057
rtibia 68.2952
rfoot -392.182 -13.5022
rtoes 20.9842
lfemur 9.30727 -2.22697 5.26235
ltibia 62.8693
lfoot -2.23289 -0.504745
ltoes -22.6268
150
root -13.6273 14.8361 4.72569 -187.128 51.1712 159.772
lowerback 34.4469 -7.52879 -15.5625
upperback 8.89987 -13.5063 -11.9891
thorax -6.70799 -5.0815 -0.254863
lowerneck -21.8341 -0.294449 2.82278
upperneck 18.6509 -2.33008 4.80305
head 9.54981 -0.254021 0.887603
rclavicle -1.27222e-014 3.81667e-014
rhumerus 4.44014 -55.9881 7.01181
rradius 64.4675
rwrist -33.4725
rhand -32.7467 -33.1483
rfingers 7.12502
rthumb -5.96968 -63.0442
lclavicle -1.27222e-014 3.81667e-014
lhumerus 1.25953 -50.1307 87.6688
lradius 50.2865
lwrist -6.78271
lhand -14.9877 -18.5852
lfingers 7.12502
lthumb 11.1766 11.0971
rfemur -31.0644 -8.62223 31.497
rtibia 66.9697
rfoot -391.971 -13.5716
rtoes 21.2028
lfemur 7.86731 -1.52867 8.65848
ltibia 67.8981
lfoot -2.90918 -2.4508
ltoes -19.181
151
root -13.5256 14.8536 4.69511 -185.011 53.4003 163.201
lowerback 34.9574 -7.49611 -12.66
upperback 9.02409 -12.7087 -11.9121
thorax -7.50226 -4.74835 -1.65601
lowerneck -21.9653 -0.270564 3.31509
upperneck 18.6847 -2.38038 4.41928
head 9.57481 -0.28507 0.666344
rclavicle 8.26944e-014 1.90833e-014
rhumerus 11.3783 -56.5073 4.1561
rradius 64.7825
rwrist -31.728
rhand -31.7036 -32.0082
rfingers 7.12502
rthumb -4.96251 -61.9301
lclavicle 8.26944e-014 1.90833e-014
lhumerus -0.809213 -51.7046 88.6754
lradius 53.5691
lwrist -7.33868
lhand -14.7421 -18.4113
lfingers 7.12502
lthumb 11.4135 11.2581
rfemur -28.8859 -6.97087 34.3423
rtibia 65.6135
rfoot -391.869 -13.3408
rtoes 21.7639
lfemur 6.32042 0.208951 11.8297
ltibia 72.5707
lfoot -3.55245 -4.74319
ltoes -26.1237
152
root -13.388 14.8923 4.67334 -183.979 55.2449 164.796
lowerback 34.966 -7.05594 -11.7213
upperback 9.17506 -11.8356 -11.4644
thorax -7.45754 -4.40209 -1.92655
lowerneck -22.2266 -0.215481 3.50237
upperneck 18.6564 -2.2087 3.61327
head 9.59222 -0.293383 0.377809
rclavicle 6.04305e-014 1.68569e-013
rhumerus 19.5961 -57.0254 0.487693
rradius 65.1305
rwrist -30.0883
rhand -30.2686 -30.7296
rfingers 7.12502
rthumb -3.57682 -60.6793
lclavicle 6.04305e-014 1.68569e-013
lhumerus -2.06268 -52.9577 89.4607
lradius 56.6379
lwrist -8.13417
lhand -14.6885 -18.4713
lfingers 7.12502
lthumb 11.4651 11.1952
rfemur -26.8914 -5.58106 35.728
rtibia 64.1265
rfoot -391.981 -12.6694
rtoes 23.7219
lfemur 4.32071 1.47065 13.3438
ltibia 77.0625
lfoot -3.80237 -8.43364
ltoes -23.3733
153
root -13.2239 14.958 4.65922 -184.564 56.5482 163.993
lowerback 34.909 -6.82718 -11.4793
upperback 9.14719 -11.4988 -11.8729
thorax -7.62371 -4.23039 -2.57945
lowerneck -22.5062 -0.07768 4.23387
upperneck 18.9277 -2.17381 3.11986
head 9.72463 -0.270815 0.0921328
rclavicle -3.49861e-014 4.13472e-014
rhumerus 27.553 -56.6093 -3.92218
rradius 65.2311
rwrist -28.6147
rhand -29.004 -28.7645
rfingers 7.12502
rthumb -2.35556 -58.7312
lclavicle -3.49861e-014 4.13472e-014
lhumerus -3.96496 -54.6802 89.6049
lradius 59.8465
lwrist -8.95682
lhand -14.8906 -18.5203
lfingers 7.12502
lthumb 11.2703 11.157
rfemur -25.1957 -4.64105 35.4638
rtibia 62.5714
rfoot -392.113 -11.9796
rtoes 24.9119
lfemur 1.57633 2.56644 12.8228
ltibia 81.6418
lfoot -0.607569 -30.5387
ltoes -20.471
154
root -13.0512 15.0294 4.65125 -183.795 57.585 164.836
lowerback 34.9163 -6.75554 -10.4286
upperback 9.19206 -11.0996 -11.9524
thorax -7.8249 -4.06493 -3.29426
lowerneck -22.7031 0.0115912 4.88242
upperneck 19.1086 -2.17537 2.63619
head 9.81118 -0.274361 -0.183209
rclavicle 2.8625e-014 6.36111e-015
rhumerus 35.3618 -55.5745 -8.10956
rradius 64.99
rwrist -27.5906
rhand -27.695 -26.0779
rfingers 7.12502
rthumb -1.0913 -56.0548
lclavicle 2.8625e-014 6.36111e-015
lhumerus -5.87586 -56.2049 89.846
lradius 62.9153
lwrist -10.2892
lhand -15.2357 -18.7524
lfingers 7.12502
lthumb 10.9374 10.9427
rfemur -23.3917 -4.05047 36.2345
rtibia 60.9394
rfoot -392.144 -11.6236
rtoes 24.0772
lfemur -1.55168 3.73104 13.2889
ltibia 85.3813
lfoot 2.55305 -51.7931
ltoes -23.9185
155
root -12.9346 15.0954 4.61078 -181.765 59.1928 166.44
lowerback 34.3907 -6.72473 -8.50615
upperback 9.08173 -10.5054 -11.9124
thorax -8.13149 -3.86705 -4.40901
lowerneck -22.799 -0.00290164 5.25165
upperneck 19.0935 -2.23636 2.23845
head 9.81185 -0.324912 -0.39244
rclavicle 8.26944e-014 -1.27222e-014
rhumerus 42.5575 -54.0628 -11.5574
rradius 64.6227
rwrist -26.9291
rhand -26.0338 -23.3127
rfingers 7.12502
rthumb 0.513128 -53.2918
lclavicle 8.26944e-014 -1.27222e-014
lhumerus -7.44163 -57.5398 90.1221
lradius 65.6411
lwrist -11.6923
lhand -15.6572 -19.2434
lfingers 7.12502
lthumb 10.5308 10.4728
rfemur -22.2484 -3.02323 37.297
rtibia 59.2704
rfoot -391.901 -10.8783
rtoes 23.7282
lfemur -5.43753 5.88463 13.7851
ltibia 87.1882
lfoot 14.6951 -73.4688
ltoes -27.7719
156
root -12.7752 15.1803 4.58261 -179.881 60.1328 168.35
lowerback 34.2878 -6.66344 -7.2426
upperback 9.1954 -10.0081 -11.3848
thorax -8.07386 -3.69774 -4.66676
lowerneck -23.3772 -0.011439 5.01754
upperneck 19.1284 -2.17757 2.05077
head 9.92525 -0.336685 -0.414136
rclavicle -4.45278e-014 -7.63333e-014
rhumerus 49.9979 -52.2183 -15.0044
rradius 64.2024
rwrist -26.48
rhand -24.406 -21.3441
rfingers 7.12502
rthumb 2.08522 -51.3137
lclavicle -4.45278e-014 -7.63333e-014
lhumerus -8.13554 -58.2804 90.0193
lradius 68.0782
lwrist -13.0213
lhand -15.8265 -19.731
lfingers 7.12502
lthumb 10.3675 9.99338
rfemur -20.7466 -3.13596 38.3409
rtibia 57.4101
rfoot -391.719 -9.85178
rtoes 24.6955
lfemur -9.20349 7.20557 14.2199
ltibia 86.5003
lfoot 128.598 -79.7933
ltoes -27.327
